<svg height="512pt" viewBox="0 0 512 512" width="512pt" xmlns="http://www.w3.org/2000/svg"><path d="m368 512h-320c-26.464844 0-48-21.535156-48-48v-341.921875l104.640625-122.078125h263.359375c26.464844 0 48 21.535156 48 48v416c0 26.464844-21.535156 48-48 48zm0 0" fill="#b0b4b9"/><path d="m320 64h32v128h-32zm0 0" fill="#fff"/><path d="m0 400v64c0 26.464844 21.535156 48 48 48h320c26.464844 0 48-21.535156 48-48v-64zm0 0" fill="#77959e"/><g fill="#fff"><path d="m128 64h32v128h-32zm0 0"/><path d="m192 64h32v128h-32zm0 0"/><path d="m256 64h32v128h-32zm0 0"/><path d="m32 224h32v32h-32zm0 0"/><path d="m32 288h32v32h-32zm0 0"/></g><path d="m416 198.71875v265.28125c0 26.398438-21.601562 48-48 48h-101.121094c-45.277344-31.839844-74.878906-84.480469-74.878906-144 0-97.121094 78.878906-176 176-176 16.640625 0 32.800781 2.238281 48 6.71875zm0 0" fill="#9da2a5"/><path d="m195.246094 400c5.554687 30.03125 18.691406 57.359375 37.328125 80h-184.574219c-26.464844 0-48-21.535156-48-48v32c0 26.464844 21.535156 48 48 48h320c26.464844 0 48-21.535156 48-48v-64zm0 0" fill="#62808c"/><path d="m512 368c0 79.527344-64.472656 144-144 144s-144-64.472656-144-144 64.472656-144 144-144 144 64.472656 144 144zm0 0" fill="#c9ef3f"/><path d="m352 430.625-59.3125-59.3125 22.625-22.625 36.6875 36.6875 68.6875-68.6875 22.625 22.625zm0 0" fill="#fff"/></svg>