<svg height="512pt" viewBox="0 0 512 512" width="512pt" xmlns="http://www.w3.org/2000/svg"><path d="m416 48v416c0 26.511719-21.488281 48-48 48h-320c-26.398438 0-48-21.601562-48-48v-112h48v-32h-48v-70.558594l64-64v-137.441406c0-26.398438 21.601562-48 48-48h256c26.398438 0 48 21.601562 48 48zm0 0" fill="#b0b4b9"/><g fill="#fff"><path d="m128 64h32v32h-32zm0 0"/><path d="m256 64h32v32h-32zm0 0"/><path d="m128 128h32v64h-32zm0 0"/><path d="m192 64h32v128h-32zm0 0"/><path d="m256 128h32v64h-32zm0 0"/><path d="m320 64h32v128h-32zm0 0"/></g><path d="m373.601562 192.078125c-87.664062-2.671875-166.195312 61.746094-179.488281 148.433594-8.160156 53.25 7.902344 102.59375 38.480469 139.488281h-184.59375c-26.464844 0-48-21.535156-48-48v32c0 26.511719 21.488281 48 48 48h320c26.511719 0 48-21.488281 48-48v-265.28125c-13.488281-3.984375-27.742188-6.191406-42.398438-6.640625zm0 0" fill="#9da2a5"/><path d="m512 368c0 79.527344-64.472656 144-144 144s-144-64.472656-144-144 64.472656-144 144-144 144 64.472656 144 144zm0 0" fill="#00ddc2"/><path d="m448 352h-64v-64h-32v64h-64v32h64v64h32v-64h64zm0 0" fill="#fff"/><path d="m0 352h48v32h-48zm0 0" fill="#9da2a5"/></svg>